<svg xmlns="http://www.w3.org/2000/svg" width="17.253" height="12.158" viewBox="0 0 17.253 12.158">
  <g id="グループ_604" data-name="グループ 604" transform="translate(-585.41 -7233.749)">
    <g id="noun_Mail_2073672" transform="translate(585.66 7233.999)">
      <g id="グループ_39" data-name="グループ 39" transform="translate(0 0)">
        <path id="パス_76" data-name="パス 76" d="M21.753,19.082a.4.4,0,0,0-.021-.125c0-.005-.006-.009-.008-.015a.392.392,0,0,0-.021-.04.4.4,0,0,0-.054-.08.392.392,0,0,0-.034-.034.564.564,0,0,0-.119-.074.394.394,0,0,0-.141-.028H5.4a.394.394,0,0,0-.141.028.37.37,0,0,0-.04.02.386.386,0,0,0-.079.053.373.373,0,0,0-.035.034.387.387,0,0,0-.053.079.367.367,0,0,0-.021.041c0,.005-.006.009-.008.015A.4.4,0,0,0,5,19.082V29.946a.4.4,0,0,0,.4.4H21.355a.4.4,0,0,0,.4-.4V19.082ZM5.8,29.548V19.889L13.135,25.5a.4.4,0,0,0,.484,0l7.338-5.607v9.659H5.8Zm7.58-4.869-6.8-5.2h13.6Z" transform="translate(-5 -18.686)" fill="#fff" stroke="#fff" stroke-width="0.5"/>
      </g>
    </g>
  </g>
</svg>
