<svg xmlns="http://www.w3.org/2000/svg" width="16.788" height="16.787" viewBox="0 0 16.788 16.787">
  <g id="グループ_602" data-name="グループ 602" transform="translate(-588.914 -7314)">
    <g id="noun_hours_2303152" transform="translate(588.914 7314)">
      <g id="グループ_601" data-name="グループ 601" transform="translate(0 0)">
        <g id="グループ_600" data-name="グループ 600">
          <g id="グループ_599" data-name="グループ 599">
            <g id="グループ_598" data-name="グループ 598">
              <g id="グループ_597" data-name="グループ 597">
                <g id="グループ_596" data-name="グループ 596" transform="translate(0 0)">
                  <path id="パス_18129" data-name="パス 18129" d="M8.394,15.371A6.976,6.976,0,1,1,15.37,8.4a6.976,6.976,0,0,1-6.976,6.976M8.394,0A8.394,8.394,0,1,1,0,8.4,8.395,8.395,0,0,1,8.394,0Zm0,2.837a.709.709,0,0,0-.709.71v4.84a.709.709,0,0,0,.207.509l3.428,3.426a.708.708,0,0,0,1,0,.709.709,0,0,0,0-1L9.1,8.1V3.548A.709.709,0,0,0,8.394,2.837Z" fill="#fff" fill-rule="evenodd"/>
                </g>
              </g>
            </g>
          </g>
        </g>
      </g>
    </g>
  </g>
</svg>
