<svg xmlns="http://www.w3.org/2000/svg" width="16.056" height="16.057" viewBox="0 0 16.056 16.057">
  <g id="グループ_605" data-name="グループ 605" transform="translate(-586.659 -7200.186)">
    <g id="noun_call_1956589" transform="translate(586.914 7200.453)">
      <path id="パス_77" data-name="パス 77" d="M138.736,137.587l-1.164,1.842a.37.37,0,0,1-.5.12,14.841,14.841,0,0,1-5.084-5.084.37.37,0,0,1,.121-.5l1.841-1.163-1.975-3.948-3.2,1.279a15.768,15.768,0,0,0,12.629,12.628l1.279-3.2Zm-4-.791a13.8,13.8,0,0,0,2.4,1.93l1.147-1.816a.37.37,0,0,1,.479-.133l4.552,2.276a.37.37,0,0,1,.178.467l-1.517,3.794a.37.37,0,0,1-.406.227A16.51,16.51,0,0,1,128,129.962a.37.37,0,0,1,.227-.406l3.794-1.517a.37.37,0,0,1,.468.178l2.276,4.552a.37.37,0,0,1-.133.479l-1.816,1.147a13.793,13.793,0,0,0,1.929,2.4Z" transform="translate(-127.99 -128.013)" fill="#fff" stroke="#fff" stroke-width="0.5"/>
    </g>
  </g>
</svg>
