<svg xmlns="http://www.w3.org/2000/svg" width="13.06" height="18.334" viewBox="0 0 13.06 18.334">
  <g id="グループ_603" data-name="グループ 603" transform="translate(-588.47 -7263.81)">
    <g id="noun_Address_2251574" transform="translate(736.579 7762.099)">
      <g id="グループ_595" data-name="グループ 595" transform="translate(-147.609 -497.789)">
        <path id="パス_18128" data-name="パス 18128" d="M26.06,7a5.99,5.99,0,0,0-5.828,4.426,6.657,6.657,0,0,0-.2,1.779c.01,2.019,1.1,3.787,2.364,5.533a27.318,27.318,0,0,1,3.477,5.413.2.2,0,0,0,.377,0,27.318,27.318,0,0,1,3.477-5.413c1.262-1.746,2.354-3.514,2.364-5.533a6.657,6.657,0,0,0-.2-1.779A5.99,5.99,0,0,0,26.06,7Zm0,.4A5.59,5.59,0,0,1,31.5,11.532a6.267,6.267,0,0,1,.189,1.672c-.009,1.874-1.038,3.57-2.289,5.3a30.609,30.609,0,0,0-3.339,5.112,30.609,30.609,0,0,0-3.339-5.112c-1.251-1.73-2.279-3.426-2.289-5.3a6.267,6.267,0,0,1,.189-1.672A5.59,5.59,0,0,1,26.06,7.4Zm-.019,2.936a2.638,2.638,0,1,0,2.647,2.641A2.633,2.633,0,0,0,26.041,10.338Zm0,.4a2.235,2.235,0,1,1-2.232,2.232A2.24,2.24,0,0,1,26.041,10.74Z" transform="translate(-20.031 -6.999)" fill="#fff" stroke="#fff" stroke-width="1"/>
      </g>
    </g>
  </g>
</svg>
