<svg xmlns="http://www.w3.org/2000/svg" width="102.693" height="19.873" viewBox="0 0 102.693 19.873">
  <g id="Layer_2" data-name="Layer 2" transform="translate(-412.4 -313.939)">
    <g id="QUMA_ロゴタイプ" data-name="QUMA ロゴタイプ" transform="translate(412.4 313.94)">
      <path id="パス_7" data-name="パス 7" d="M424.056,333.557a12.238,12.238,0,0,1,2.748-.308H435.9v-2.909h-4.22A11.01,11.01,0,0,0,426.6,331.5a.056.056,0,1,1-.046-.1,7.711,7.711,0,0,0,4.593-7.3v-.225c0-5.9-3.944-9.935-9.373-9.935s-9.373,4.037-9.373,9.935,3.944,9.936,9.373,9.936A10.158,10.158,0,0,0,424.056,333.557Zm-2.277-2.656c-3.258,0-5.622-2.855-5.622-7.026s2.366-7.025,5.622-7.025,5.622,2.855,5.622,7.025-2.369,7.026-5.626,7.026Zm35.9-16.4h-3.753v12.177a4.369,4.369,0,0,1-8.736,0V314.5h-3.749v12.279c0,4.173,3.416,7.03,8.118,7.03s8.113-2.857,8.113-7.03Z" transform="translate(-412.4 -313.94)" fill="#fffffe"/>
      <path id="パス_8" data-name="パス 8" d="M1196.02,321.84l-5.007,13.828-5.007-13.828h-5.817v18.747h3.562v-14.98h.057l5.424,14.98h3.561l5.425-14.98h.056v14.98h3.562V321.84Z" transform="translate(-1125.546 -321.278)" fill="#fffffe"/>
      <path id="パス_9" data-name="パス 9" d="M1603.242,321.84h-3.976l-7.385,18.747h3.75l1.675-4.252h7.9l1.675,4.252h3.749Zm-4.791,11.586,2.776-7.674h.057l2.776,7.674Z" transform="translate(-1507.936 -321.278)" fill="#fffffe"/>
    </g>
  </g>
</svg>
