<svg xmlns="http://www.w3.org/2000/svg" viewBox="0 0 1442.86 279.21"><defs><style>.cls-1{fill:#231916;}</style></defs><title>quma_logo</title><g id="Layer_2" data-name="Layer 2"><g id="QUMA_ロゴタイプ" data-name="QUMA ロゴタイプ"><path class="cls-1" d="M163.75,275.64a172,172,0,0,1,38.62-4.33H330.13V230.44h-59.3c-26.88,0-51,5.85-71.34,16.33a.78.78,0,0,1-1-.4.8.8,0,0,1,.4-1c38.24-15.83,63.49-53.33,64.52-102.57,0-1,0-2.1,0-3.16C263.4,56.72,208,0,131.7,0S0,56.72,0,139.6,55.42,279.21,131.7,279.21A142.63,142.63,0,0,0,163.75,275.64ZM131.7,238.32c-45.77,0-79-40.11-79-98.72s33.25-98.71,79-98.71,79,40.11,79,98.71S177.47,238.32,131.7,238.32ZM636.07,7.9H583.39V179c0,35.91-25.83,60.49-61.38,60.49S460.63,214.9,460.63,179V7.9H408V180.43c0,58.64,48,98.78,114.06,98.78s114.06-40.14,114.06-98.78Z"/><polygon class="cls-1" points="990.2 7.9 919.85 202.2 849.49 7.9 767.77 7.9 767.77 271.31 817.82 271.31 817.82 60.83 818.61 60.83 894.82 271.31 894.82 271.31 894.82 271.31 944.87 271.31 944.87 271.31 944.87 271.31 1021.08 60.83 1021.87 60.83 1021.87 271.31 1071.92 271.31 1071.92 7.9 990.2 7.9"/><path class="cls-1" d="M1339.1,7.9h-55.88L1179.46,271.31h52.68l23.54-59.75h111l23.54,59.75h52.68Zm-67.32,162.8,39-107.83h.8l39,107.83Z"/></g></g></svg>